<svg xmlns="http://www.w3.org/2000/svg" viewBox="0 0 16 16"
     shape-rendering="crispEdges" role="img" aria-label="Portable radio">
  <title>Notturnometer</title>
  <!-- Pixel art, 16x16, generated from scratch/favicon_gen.py.
       Edit the grid there and regenerate; do not hand-edit the rects.

       ................
       ..............=.
       .............=..
       ............=...
       ...........=....
       .##############.
       .##############.
       .#.ooooo..====.#
       .##############.
       .#.ooooo....|..#
       .##############.
       .#.ooooo..===..#
       .#........===..#
       .##############.
       ................
       ................

       #shell  o cut(grille)  = | accent(rust)  . transparent

       The shell inverts under prefers-color-scheme: dark so the radio stays
       visible on a dark tab strip; the grille inverts the other way, so it
       reads as a hole in both; the rust never moves — it is the one colour
       that says which site this is. -->
  <style>
    .shell { fill: #1B1B18; }
    .cut { fill: #FAF9F4; }
    .accent { fill: #A6402A; }
    @media (prefers-color-scheme: dark) {
      .shell { fill: #FAF9F4; }
      .cut { fill: #1B1B18; }
    }
  </style>
  <rect class="accent" x="14" y="1" width="1" height="1"/>
  <rect class="accent" x="13" y="2" width="1" height="1"/>
  <rect class="accent" x="12" y="3" width="1" height="1"/>
  <rect class="accent" x="11" y="4" width="1" height="1"/>
  <rect class="shell" x="1" y="5" width="14" height="1"/>
  <rect class="shell" x="1" y="6" width="14" height="1"/>
  <rect class="shell" x="1" y="7" width="1" height="1"/>
  <rect class="cut" x="3" y="7" width="5" height="1"/>
  <rect class="accent" x="10" y="7" width="4" height="1"/>
  <rect class="shell" x="15" y="7" width="1" height="1"/>
  <rect class="shell" x="1" y="8" width="14" height="1"/>
  <rect class="shell" x="1" y="9" width="1" height="1"/>
  <rect class="cut" x="3" y="9" width="5" height="1"/>
  <rect class="accent" x="12" y="9" width="1" height="1"/>
  <rect class="shell" x="15" y="9" width="1" height="1"/>
  <rect class="shell" x="1" y="10" width="14" height="1"/>
  <rect class="shell" x="1" y="11" width="1" height="1"/>
  <rect class="cut" x="3" y="11" width="5" height="1"/>
  <rect class="accent" x="10" y="11" width="3" height="1"/>
  <rect class="shell" x="15" y="11" width="1" height="1"/>
  <rect class="shell" x="1" y="12" width="1" height="1"/>
  <rect class="accent" x="10" y="12" width="3" height="1"/>
  <rect class="shell" x="15" y="12" width="1" height="1"/>
  <rect class="shell" x="1" y="13" width="14" height="1"/>
</svg>
